<svg width="35" height="35" viewBox="0 0 35 35" fill="none" xmlns="http://www.w3.org/2000/svg">
<path d="M22.7354 18.0833V24.0187C22.7354 24.5437 22.6771 25.0396 22.5458 25.4917C22.0062 27.6354 20.2271 28.9771 17.7771 28.9771H13.8104L9.40625 31.9083C9.25861 32.0094 9.08609 32.0681 8.90745 32.0779C8.7288 32.0878 8.55087 32.0485 8.39301 31.9643C8.23514 31.8801 8.10338 31.7542 8.01205 31.6004C7.92072 31.4465 7.87332 31.2706 7.875 31.0917V28.9771C6.3875 28.9771 5.14791 28.4813 4.2875 27.6208C3.4125 26.7458 2.91666 25.5062 2.91666 24.0187V18.0833C2.91666 15.3125 4.6375 13.4021 7.29166 13.1542C7.48125 13.1396 7.67083 13.125 7.875 13.125H17.7771C20.7521 13.125 22.7354 15.1083 22.7354 18.0833Z" fill="#FFE0ED"/>
<path d="M25.8854 22.75C27.7375 22.75 29.2979 22.1375 30.3771 21.0438C31.4708 19.9646 32.0833 18.4042 32.0833 16.5521V9.1146C32.0833 5.68752 29.3125 2.91669 25.8854 2.91669H13.4896C10.0625 2.91669 7.29166 5.68752 7.29166 9.1146V10.2084C7.29166 10.6167 7.6125 10.9375 8.02083 10.9375H17.7771C21.7292 10.9375 24.9229 14.1313 24.9229 18.0834V22.0209C24.9229 22.4292 25.2437 22.75 25.6521 22.75H25.8854Z" fill="#FFE0ED"/>
</svg>
